<?xml version="1.0" encoding="utf-8"?>
<!-- Generator: Adobe Illustrator 26.0.3, SVG Export Plug-In . SVG Version: 6.00 Build 0)  -->
<svg version="1.1" id="T-Systems_Logo" xmlns="http://www.w3.org/2000/svg" xmlns:xlink="http://www.w3.org/1999/xlink" x="0px"
	 y="0px" viewBox="0 0 588.4 233.1" style="enable-background:new 0 0 588.4 233.1;" xml:space="preserve">
<style type="text/css">
	.st0{fill:#E20074;}
</style>
<path class="st0" d="M177.5,37.2c-4.2-20-12.4-30-24.5-30c-9.4,0-15,6.5-15,15.6c0,12.6,11.6,16.5,21.6,20.1
	c15.8,5.7,28.7,12.4,28.7,30.8c0,17.6-12.5,31.7-30.4,31.7c-11.5,0-21.1-6.5-25-9.8l-3.3,7.4H124V65.7h5.8
	c2.1,9.4,4.7,16.5,7.9,21.5c5,7.8,11.5,11.7,19.7,11.7c11,0,17.2-7.5,17.2-18.1c0-13.9-10.9-17.9-22.3-21.8
	C136.7,53.6,124.7,47,124.7,29c0-16.3,11.2-28.3,27.6-28.3c9.4,0,16.5,4.1,22.3,8.5l2.8-6.2h5.4v34.2H177.5z M221.6,103.8
	l-20.9-54.6c-3.2-8.3-4.4-9.7-8.6-9.7h-2.4v-5.8h33.5v5.8H218c-2.6,0-3.7,1-3.7,3c0.1,1.2,0.4,2.4,0.9,3.5l14.3,36.4l12-33.6
	c0.6-1.7,1-3.5,1.2-5.3c0-2.8-1.4-4.1-4.6-4.1h-5.2v-5.8H259v5.8h-2.5c-3,0-4.2,1.7-6.2,7l-23.1,62c-5.6,15-10.2,21.3-20.6,21.3
	c-7.9,0-15.1-5.1-15.1-13.5c0-5.4,3.6-9.6,9.2-9.6c4.9,0,8.9,3.3,8.9,8.3c0,3.6-1.7,6.2-5.2,8c0.9,0.3,1.8,0.4,2.8,0.4
	c5.7,0,8.9-3.9,13-15.5L221.6,103.8z M301.4,56.8c-3-12.7-8.9-19-17.6-19c-6,0-9.9,3.5-9.9,9.6c0,7.4,8.7,9.7,14.4,11.5
	c12,3.9,22.6,9.1,22.6,23.2c0,13.9-10.4,22.4-23.8,22.4c-7.1,0-13.9-2.6-19.4-7.1l-1.8,5.6h-5.1V76.4h5.1
	c3.2,10.4,8.4,22.2,21.2,22.2c6.7,0,11-4.6,11-11.2c0-8.8-8.9-11.8-15.8-14.1c-10.9-3.8-20.8-8.7-20.8-21.6
	c0-12.2,9.7-19.3,21.3-19.3c6.3,0.2,12.5,2.3,17.6,6l1.5-4.5h5.1v23L301.4,56.8z M361.3,85.9c0,11.8-6.8,18.6-18.6,18.6
	c-11.8,0-18.6-6.8-18.6-18.6V40.6h-10.7v-6c6.7-1.6,11.2-4.1,14-7.5c3-3.6,4.9-10.5,5.9-19.2h5.7v25.8h20.1v6.8H339v46.1
	c0,7.8,3.2,10.2,6.7,10.2c5.1,0,8.6-3.7,8.6-12.3v-6.9h7L361.3,85.9z M383.4,68.7c0.5,11.5,1,29.5,16,29.5c9.8,0,14.7-8.1,18.2-16
	l6,3.1c-5.7,11.5-12.6,19.8-26.5,19.8c-21.2,0-29.8-18.1-29.8-36.7c0-17.9,8.7-36.7,28.5-36.7c21.3,0,27.9,20.5,28.4,37H383.4z
	 M408,62.3c-0.3-16.7-4.4-24.5-11.9-24.5s-12,8.5-12.5,24.5H408z M523.6,52.3v37.8c0.1,5.2,2,7.3,7.3,7.3h2v5.7h-24.1V53.6
	c0-9.7-2.9-13.7-9.1-13.7c-7.8,0-11.5,9-11.5,21.5v28.7c0.1,5.2,2,7.3,7.3,7.3h2.4v5.7h-24.5V53.6c0-9.7-3-13.7-9.2-13.7
	c-8.1,0-11.5,9-11.5,21.5v28.7c0.1,5.2,2,7.3,7.3,7.3h2.4v5.7h-34.5v-5.7h2.7c5.2,0,7.3-2,7.3-7.3V46c-0.1-5.2-2-7.3-7.3-7.3h-2
	v-5.7h23.2v7.8c3.7-5.4,9.9-8.6,16.5-8.6c8.7,0,14.4,4,17.9,10.6c3.5-6.5,10.2-10.5,17.5-10.6C516.3,32.2,523.6,39.6,523.6,52.3z
	 M578.9,56.8c-3-12.7-8.9-19-17.6-19c-6,0-9.9,3.5-9.9,9.6c0,7.4,8.7,9.7,14.4,11.5c12,3.9,22.6,9.1,22.6,23.2
	c0,13.9-10.4,22.4-23.8,22.4c-7.1,0-13.9-2.6-19.4-7.1l-1.8,5.6h-5.1V76.4h5.1c3.2,10.4,8.4,22.2,21.2,22.2c6.7,0,11-4.6,11-11.2
	c0-8.8-8.9-11.8-15.8-14.1c-10.9-3.8-20.8-8.7-20.8-21.6c0-12.2,9.7-19.3,21.3-19.3c6.3,0.2,12.5,2.3,17.6,6l1.5-4.5h5.1v23
	L578.9,56.8z M20,69H0V49h20V69z M0,3v34h6v-1c0-16,9-26,26-26h1v72c0,10-4,14-14,14h-3v7h52v-7h-3c-10,0-14-4-14-14V10h1
	c17,0,26,10,26,26v1h6V3H0z M64,69h20V49H64V69z"/>
<g>
	<g>
		<path d="M39.4,183.9h4.5v47.3H39v-36.3h-0.4l-15.3,27.5h-1.7L6.2,194.9H5.8v36.3H1v-47.3h4.5l16.8,30.5h0.4L39.4,183.9z"/>
		<path d="M65.4,232.1c-3.6,0-6.3-1.1-8-3.2c-1.7-2.1-2.5-5.1-2.5-8.9v-22h4.6v21.6c0,2.6,0.6,4.5,1.7,6c1.1,1.4,2.9,2.2,5.4,2.2
			c2.8,0,4.9-1,6.4-3c1.5-2,2.2-4.8,2.2-8.4V198h4.6v33.2h-4.4v-4.7h-0.4c-0.9,1.8-2.1,3.2-3.8,4.2
			C69.4,231.6,67.5,232.1,65.4,232.1z"/>
		<path d="M94.9,224.7c0,0.9,0.2,1.6,0.6,2.1c0.4,0.5,1,0.7,1.7,0.7c0.9,0,1.8-0.1,2.7-0.4v3.8c-1.1,0.4-2.2,0.6-3.5,0.6
			c-1.9,0-3.5-0.5-4.6-1.6c-1.1-1.1-1.7-2.7-1.7-4.8v-41.4h4.7V224.7z"/>
		<path d="M117.2,231.6c-2.5,0-4.4-0.8-5.8-2.3c-1.4-1.5-2.1-3.7-2.1-6.6V202h-6.4v-4h6.4V191l3.6-4h1.1v11h9.6v4H114v20.3
			c0,1.7,0.4,3,1.1,3.9c0.8,0.9,1.8,1.3,3.3,1.3c1.3,0,2.7-0.3,4.4-0.8v3.8C121.2,231.2,119.4,231.6,117.2,231.6z"/>
		<path d="M130.5,191v-7.1h4.6v7.1H130.5z M130.5,231.2V198h4.6v33.2H130.5z"/>
		<path d="M180.2,197.1c3.6,0,6.3,1.1,8,3.2c1.7,2.1,2.5,5.1,2.5,8.9v22h-4.6v-21.7c0-2.6-0.6-4.5-1.7-6c-1.1-1.4-2.9-2.2-5.4-2.2
			c-2.8,0-5,0.9-6.4,2.8c-1.4,1.9-2.2,4.7-2.2,8.6v18.4h-4.6v-21.7c0-2.6-0.5-4.5-1.6-6c-1.1-1.4-2.9-2.2-5.4-2.2
			c-2.7,0-4.8,1-6.3,3c-1.5,2-2.2,4.8-2.2,8.4v18.4h-4.6V198h4.3v4.7h0.4c0.9-1.8,2.1-3.2,3.8-4.2s3.6-1.4,5.8-1.4
			c2.6,0,4.6,0.5,6.2,1.6c1.6,1.1,2.7,2.6,3.3,4.5h0.4c0.9-2,2.2-3.6,4-4.6C175.9,197.7,177.9,197.1,180.2,197.1z"/>
		<path d="M212.8,232.1c-2.8,0-5.2-0.7-7.3-2.1c-2.1-1.4-3.7-3.4-4.8-6c-1.1-2.6-1.7-5.8-1.7-9.4c0-3.6,0.6-6.7,1.7-9.3
			c1.1-2.6,2.7-4.6,4.8-6c2.1-1.4,4.6-2.1,7.4-2.1c2.7,0,5.1,0.7,7.2,2c2,1.3,3.6,3.3,4.7,5.8c1.1,2.5,1.7,5.5,1.7,9
			c0,0.2,0,0.5,0,0.7s0,0.5-0.1,0.7h-24.4v-3.8H224l-2.1,2.3c0-4.1-0.7-7.3-2.3-9.4c-1.6-2.2-3.8-3.3-6.7-3.3
			c-3.1,0-5.4,1.1-6.9,3.4c-1.6,2.2-2.3,5.6-2.3,10s0.8,7.7,2.4,10c1.6,2.3,3.9,3.4,6.8,3.4c2,0,3.7-0.4,5.1-1.3
			c1.4-0.9,2.4-2.2,3.1-3.9h4.9c-0.9,2.9-2.6,5.2-4.8,6.9S216.1,232.1,212.8,232.1z"/>
		<path d="M256.8,203v-19.1h4.6v47.3h-4.3v-5.5h-0.4c-1,2-2.4,3.6-4.2,4.7c-1.8,1.1-3.9,1.7-6.2,1.7c-2.8,0-5.2-0.7-7.2-2.1
			c-2-1.4-3.5-3.4-4.6-6c-1-2.6-1.6-5.8-1.6-9.4c0-3.6,0.5-6.7,1.6-9.3c1-2.6,2.6-4.6,4.6-6c2-1.4,4.4-2.1,7.2-2.1
			c2.2,0,4.2,0.5,6,1.5c1.8,1,3.2,2.4,4.2,4.3H256.8z M247.2,227.8c3.1,0,5.5-1.2,7.1-3.5c1.6-2.3,2.4-5.6,2.4-9.7s-0.8-7.4-2.4-9.7
			c-1.6-2.3-4-3.5-7.1-3.5c-3.2,0-5.6,1.1-7.2,3.4c-1.6,2.3-2.4,5.5-2.4,9.7c0,4.2,0.8,7.5,2.4,9.7
			C241.7,226.6,244,227.8,247.2,227.8z"/>
		<path d="M272.2,191v-7.1h4.6v7.1H272.2z M272.2,231.2V198h4.6v33.2H272.2z"/>
		<path d="M295.1,231.9c-3.1,0-5.5-0.9-7.2-2.6c-1.7-1.7-2.6-4.1-2.6-7.1c0-3.7,1.5-6.5,4.5-8.4s7.3-2.9,12.9-2.9h2.6v-1.7
			c0-2.5-0.6-4.5-1.7-5.9c-1.1-1.4-3-2.2-5.5-2.2c-2.1,0-3.7,0.5-4.9,1.4c-1.2,0.9-1.9,2.3-2.2,4.1h-4.5c0.3-3.1,1.5-5.4,3.6-7.1
			c2.1-1.6,4.8-2.4,8.2-2.4c3.9,0,6.8,1.1,8.8,3.3c2,2.2,3,5.2,3,8.9v15.9c0,0.7,0.2,1.3,0.5,1.7c0.3,0.4,0.8,0.6,1.4,0.6
			c0.5,0,1.1-0.1,1.8-0.4v3.8c-0.4,0.2-0.9,0.3-1.5,0.5c-0.5,0.1-1.1,0.2-1.7,0.2c-1.5,0-2.7-0.4-3.6-1.3c-0.9-0.9-1.4-2.2-1.4-3.9
			v-2.7l1.8,2.7h-3l2.3-5.5v0.7c0,1.9-0.5,3.6-1.5,5.2c-1,1.6-2.4,2.8-4.1,3.7C299,231.4,297.1,231.9,295.1,231.9z M296,228
			c1.8,0,3.5-0.5,4.9-1.4c1.4-0.9,2.5-2.3,3.3-3.9c0.8-1.7,1.1-3.5,1.1-5.6v-2.4h-2.6c-4.3,0-7.5,0.6-9.6,1.8
			c-2.2,1.2-3.3,3-3.3,5.5c0,1.8,0.6,3.3,1.7,4.4C292.6,227.5,294.1,228,296,228z"/>
		<path d="M348,232.1c-4.4,0-7.9-1.2-10.6-3.5c-2.6-2.4-4.2-5.7-4.6-10.1h4.9c0.4,3.1,1.5,5.3,3.3,6.8c1.8,1.5,4.1,2.2,6.9,2.2
			c2.9,0,5.2-0.8,6.9-2.3c1.7-1.5,2.6-3.5,2.6-6c0-2.3-0.6-4.1-1.9-5.4c-1.3-1.3-3.2-2.4-5.8-3.3l-5.7-1.8c-3.3-1-5.8-2.6-7.6-4.8
			c-1.8-2.2-2.7-4.7-2.7-7.7c0-2.6,0.6-5,1.9-6.9c1.3-2,2.9-3.5,5.1-4.5c2.1-1,4.5-1.6,7-1.6c4.2,0,7.6,1.2,10.1,3.5
			c2.5,2.3,4,5.5,4.5,9.5h-4.9c-0.4-2.7-1.4-4.7-3-6.2c-1.7-1.4-3.9-2.1-6.6-2.1c-2.5,0-4.6,0.7-6.3,2.1c-1.7,1.4-2.6,3.4-2.6,6
			c0,2,0.6,3.6,1.8,5c1.2,1.3,3,2.4,5.5,3.2l5.7,1.8c3.3,1,5.9,2.6,7.8,4.7c1.9,2.2,2.8,4.9,2.8,8.3c0,2.6-0.6,5-1.8,6.9
			s-2.9,3.5-5.1,4.6C353.3,231.5,350.8,232.1,348,232.1z"/>
		<path d="M383.5,232.1c-2.9,0-5.5-0.7-7.6-2.1c-2.2-1.4-3.8-3.4-5-6.1c-1.2-2.6-1.7-5.7-1.7-9.3c0-3.5,0.6-6.6,1.7-9.2
			c1.2-2.6,2.8-4.6,5-6.1c2.1-1.4,4.7-2.1,7.6-2.1c2.9,0,5.5,0.7,7.6,2.1c2.1,1.4,3.8,3.4,5,6.1c1.2,2.6,1.7,5.7,1.7,9.2
			c0,3.5-0.6,6.6-1.7,9.3c-1.2,2.6-2.8,4.7-5,6.1C388.9,231.4,386.4,232.1,383.5,232.1z M383.5,227.8c3.2,0,5.6-1.1,7.2-3.4
			c1.6-2.3,2.4-5.5,2.4-9.7c0-4.2-0.8-7.5-2.4-9.7c-1.6-2.3-4-3.4-7.1-3.4s-5.5,1.2-7.1,3.5c-1.6,2.3-2.4,5.6-2.4,9.7
			c0,4.2,0.8,7.5,2.4,9.7C378,226.6,380.4,227.8,383.5,227.8z"/>
		<path d="M411,224.7c0,0.9,0.2,1.6,0.6,2.1c0.4,0.5,1,0.7,1.7,0.7c0.9,0,1.8-0.1,2.7-0.4v3.8c-1.1,0.4-2.2,0.6-3.5,0.6
			c-1.9,0-3.5-0.5-4.6-1.6c-1.1-1.1-1.7-2.7-1.7-4.8v-41.4h4.7V224.7z"/>
		<path d="M433,232.1c-3.6,0-6.3-1.1-8-3.2c-1.7-2.1-2.5-5.1-2.5-8.9v-22h4.6v21.6c0,2.6,0.6,4.5,1.7,6c1.1,1.4,2.9,2.2,5.4,2.2
			c2.8,0,4.9-1,6.4-3c1.5-2,2.2-4.8,2.2-8.4V198h4.6v33.2h-4.4v-4.7h-0.4c-0.9,1.8-2.1,3.2-3.8,4.2
			C437.1,231.6,435.1,232.1,433,232.1z"/>
		<path d="M468.4,231.6c-2.5,0-4.4-0.8-5.8-2.3c-1.4-1.5-2.1-3.7-2.1-6.6V202h-6.4v-4h6.4V191l3.6-4h1.1v11h9.6v4h-9.6v20.3
			c0,1.7,0.4,3,1.1,3.9s1.8,1.3,3.3,1.3c1.3,0,2.7-0.3,4.4-0.8v3.8C472.4,231.2,470.6,231.6,468.4,231.6z"/>
		<path d="M481.7,191v-7.1h4.6v7.1H481.7z M481.7,231.2V198h4.6v33.2H481.7z"/>
		<path d="M509.2,232.1c-2.9,0-5.5-0.7-7.6-2.1c-2.2-1.4-3.8-3.4-5-6.1c-1.2-2.6-1.7-5.7-1.7-9.3c0-3.5,0.6-6.6,1.7-9.2
			c1.2-2.6,2.8-4.6,5-6.1c2.1-1.4,4.7-2.1,7.6-2.1c2.9,0,5.5,0.7,7.6,2.1c2.1,1.4,3.8,3.4,5,6.1c1.2,2.6,1.7,5.7,1.7,9.2
			c0,3.5-0.6,6.6-1.7,9.3c-1.2,2.6-2.8,4.7-5,6.1C514.7,231.4,512.1,232.1,509.2,232.1z M509.2,227.8c3.2,0,5.6-1.1,7.2-3.4
			c1.6-2.3,2.4-5.5,2.4-9.7c0-4.2-0.8-7.5-2.4-9.7c-1.6-2.3-4-3.4-7.1-3.4s-5.5,1.2-7.1,3.5c-1.6,2.3-2.4,5.6-2.4,9.7
			c0,4.2,0.8,7.5,2.4,9.7C503.7,226.6,506.1,227.8,509.2,227.8z"/>
		<path d="M546.5,197.1c3.6,0,6.2,1.1,7.9,3.2c1.7,2.1,2.5,5.1,2.5,8.9v22h-4.6v-21.7c0-2.6-0.5-4.5-1.6-6s-2.9-2.2-5.4-2.2
			c-2.7,0-4.8,1-6.3,3c-1.5,2-2.2,4.8-2.2,8.4v18.4h-4.6V198h4.3v4.7h0.4c0.9-1.8,2.1-3.2,3.8-4.2
			C542.4,197.6,544.4,197.1,546.5,197.1z"/>
		<path d="M576.6,232.1c-3.3,0-6-0.8-8-2.5c-2-1.7-3.2-4-3.6-6.8h4.4c0.4,1.7,1.2,3,2.3,4c1.2,0.9,2.8,1.4,4.8,1.4
			c2,0,3.6-0.5,4.9-1.5c1.3-1,1.9-2.3,1.9-3.9c0-1.7-0.5-3-1.5-3.8c-1-0.8-2.4-1.4-4.2-1.9l-4-1.1c-2.5-0.7-4.4-1.7-5.8-3.2
			c-1.4-1.4-2.1-3.4-2.1-6c0-1.8,0.5-3.4,1.4-4.9c0.9-1.4,2.2-2.6,3.9-3.4c1.7-0.9,3.6-1.3,5.8-1.3c3,0,5.5,0.9,7.5,2.6
			c2,1.7,3.1,4,3.5,6.9h-4.5c-0.3-1.7-1-3.1-2.1-4.1c-1.1-1-2.6-1.5-4.3-1.5c-1.9,0-3.5,0.5-4.7,1.6c-1.2,1-1.8,2.4-1.8,4
			c0,1.4,0.4,2.5,1.2,3.4c0.8,0.8,2.1,1.5,3.9,1.9l4,1c2.7,0.7,4.9,1.8,6.3,3.4s2.2,3.6,2.2,6.1c0,2.8-1.1,5.1-3.2,6.9
			C582.6,231.2,579.9,232.1,576.6,232.1z"/>
	</g>
</g>
</svg>
